<svg width="130" height="130" viewBox="0 0 130 130" fill="none" xmlns="http://www.w3.org/2000/svg">
<circle cx="65" cy="65" r="65" fill="#1291D8"/>
<path d="M66.3049 32C55.9118 32 49.1801 36.2156 43.8951 43.7338C42.9364 45.0976 43.2319 46.9676 44.5693 47.9715L50.1862 52.1879C51.5369 53.2017 53.4586 52.9647 54.5161 51.6532C57.7776 47.608 60.197 45.2789 65.2917 45.2789C69.2974 45.2789 74.2521 47.8311 74.2521 51.6766C74.2521 54.5837 71.828 56.0767 67.8728 58.272C63.2605 60.8321 57.1568 64.0181 57.1568 71.9883V73.25C57.1568 74.9587 58.5559 76.3438 60.2818 76.3438H69.7181C71.444 76.3438 72.8431 74.9587 72.8431 73.25V72.5058C72.8431 66.9809 89.1541 66.7508 89.1541 51.8C89.1542 40.5408 77.3571 32 66.3049 32ZM65 80.1412C60.0266 80.1412 55.9804 84.147 55.9804 89.0707C55.9804 93.9942 60.0266 98 65 98C69.9735 98 74.0197 93.9942 74.0197 89.0705C74.0197 84.1468 69.9735 80.1412 65 80.1412Z" fill="white"/>
</svg>
